<svg width="300" height="300" viewBox="0 0 300 300" fill="none" xmlns="http://www.w3.org/2000/svg">
<path d="M150 0C120.333 0 91.3319 8.79735 66.6645 25.2796C41.9971 41.7618 22.7713 65.1886 11.4181 92.5975C0.0649926 120.006 -2.90551 150.166 2.88227 179.264C8.67006 208.361 22.9562 235.088 43.934 256.066C64.9119 277.044 91.6394 291.33 120.737 297.118C149.834 302.905 179.994 299.935 207.403 288.582C234.811 277.229 258.238 258.003 274.72 233.335C291.203 208.668 300 179.667 300 150C299.944 110.235 284.123 72.1141 256.004 43.9957C227.886 15.8774 189.765 0.0558895 150 0Z" fill="#04946D"/>
<path d="M147.734 70.0741H138.03V79.7783H147.734V70.0741Z" fill="white"/>
<path d="M127.725 70.0741H118.021V79.7783H127.725V70.0741Z" fill="white"/>
<path d="M183.263 103.774H173.559V113.479H183.263V103.774Z" fill="white"/>
<path d="M163.254 103.774H153.55V113.479H163.254V103.774Z" fill="white"/>
<path d="M143.246 103.774H133.542V113.479H143.246V103.774Z" fill="white"/>
<path d="M183.263 123.206H173.559V132.91H183.263V123.206Z" fill="white"/>
<path d="M163.254 123.206H153.55V132.91H163.254V123.206Z" fill="white"/>
<path d="M143.246 123.206H133.542V132.91H143.246V123.206Z" fill="white"/>
<path d="M163.254 142.637H153.55V152.341H163.254V142.637Z" fill="white"/>
<path d="M143.246 142.637H133.542V152.341H143.246V142.637Z" fill="white"/>
<path d="M183.263 142.637H173.559V162.123H183.263V142.637Z" fill="white"/>
<path d="M184.813 86.8585H164.237V68.4899C164.237 60.3355 157.604 53.7011 149.45 53.7011H116.306C108.152 53.7011 101.517 60.3355 101.517 68.4899V162.124H108.65V68.4899C108.65 64.2684 112.084 60.8343 116.306 60.8343H149.45C153.67 60.8343 157.104 64.2684 157.104 68.4899V86.8585H131.992C123.838 86.8585 117.203 93.4929 117.203 101.648V162.124H124.336V101.648C124.336 97.4265 127.771 93.9916 131.992 93.9916H184.813C189.034 93.9916 192.468 97.4265 192.468 101.648V162.124H199.601V101.648C199.601 93.4929 192.967 86.8585 184.813 86.8585Z" fill="white"/>
<path d="M87.7746 185.188C89.3544 185.793 90.3285 187.083 90.3285 189.558C90.3285 193.323 87.5903 194.745 84.5362 194.745H76.5059V176.789H83.5093C85.2734 176.789 89.8019 176.789 89.8019 181.528C89.8019 183.581 88.9857 184.635 87.7746 185.188ZM79.3494 179.395V185.266C80.2182 184.503 81.5083 183.897 83.6147 183.897C85.6157 183.897 86.8268 183.187 86.8268 181.528C86.8268 180.343 86.3792 179.395 84.1412 179.395H79.3494ZM84.5362 192.138C85.9316 192.138 87.327 191.585 87.327 189.321C87.327 187.083 85.8 186.478 84.4045 186.478H83.2197C80.8238 186.504 79.3494 187.741 79.3494 189.742V192.165L84.5362 192.138ZM101.665 176.552C107.326 176.552 110.749 180.685 110.749 185.767C110.749 190.848 107.326 194.982 101.665 194.982C95.978 194.982 92.5553 190.848 92.5553 185.767C92.5553 180.685 95.978 176.552 101.665 176.552ZM101.665 192.402C105.746 192.402 107.8 189.558 107.8 185.767C107.8 182.002 105.746 179.158 101.665 179.158C97.5578 179.158 95.5041 182.002 95.5041 185.767C95.5041 189.558 97.5578 192.402 101.665 192.402ZM103.508 185.767L101.665 187.61L99.8221 185.767L101.665 183.95L103.508 185.767ZM128.825 176.789H131.353V194.745H128.536V179.948C125.429 181.501 123.56 184.951 123.56 187.899H121.19C121.19 184.951 119.321 181.501 116.24 179.948V194.745H113.397V176.789H115.95C119.163 178.131 121.48 180.843 122.375 182.818C123.296 180.843 125.587 178.131 128.825 176.789ZM169.033 179.395H161.74V182.818H168.27V185.424H161.74V188.847H169.033V191.454H158.923V176.789H169.033V179.395ZM153.42 188.531C155.079 190.717 157.765 195.35 164.531 195.35C166.322 195.35 167.875 195.061 169.007 194.771V197.404C167.506 197.746 165.874 197.904 164.531 197.904C160.082 197.904 155.869 196.588 151.367 190.111C150.208 188.452 148.997 187.662 146.97 187.662H145.785V194.745H142.942V176.789H149.418C153.262 176.815 156.185 177.947 156.185 182.212C156.185 185.424 154.5 186.609 152.104 187.004C152.578 187.478 152.999 187.978 153.42 188.531ZM148.286 185.056C150.893 185.082 153.236 185.135 153.236 182.212C153.236 179.711 151.604 179.395 149.55 179.395H145.785V185.056H148.286ZM170.865 176.789H185.293V179.395H179.501V194.745H176.658V179.395H170.865V176.789ZM190.495 194.745H187.652V176.789H190.495V194.745ZM216.181 176.552C220.92 176.552 223.632 179.395 223.632 184.108C223.632 188.847 220.92 191.691 216.181 191.691C211.468 191.691 208.756 188.847 208.756 184.108C208.756 179.395 211.468 176.552 216.181 176.552ZM204.123 188.531C205.781 190.717 208.467 195.35 215.233 195.35C216.655 195.35 217.919 195.166 218.946 194.956V197.562C217.682 197.799 216.365 197.904 215.233 197.904C210.784 197.904 206.571 196.588 202.069 190.111C200.91 188.452 199.699 187.662 197.672 187.662H196.487V194.745H193.644V176.789H200.121C203.965 176.815 206.887 177.947 206.887 182.212C206.887 185.424 205.202 186.609 202.806 187.004C203.28 187.478 203.701 187.978 204.123 188.531ZM216.181 189.084C219.973 189.084 220.683 186.241 220.683 184.108C220.683 182.002 219.973 179.158 216.181 179.158C212.416 179.158 211.705 182.002 211.705 184.108C211.705 186.241 212.416 189.084 216.181 189.084ZM198.988 185.056C201.595 185.082 203.938 185.135 203.938 182.212C203.938 179.711 202.306 179.395 200.252 179.395H196.487V185.056H198.988Z" fill="white"/>
<path d="M91.6764 205.241C98.5506 205.241 106.906 206.901 106.906 217.567C106.906 225.805 101.336 229.716 92.1505 229.716C88.2393 229.716 82.9059 231.494 82.9059 237.123V245.657H76.5059V205.241H91.6764ZM91.3801 223.849C98.8469 223.849 100.21 221.301 100.21 217.567C100.21 213.419 98.3728 211.108 91.3209 211.108H82.9059V226.516C84.743 224.975 87.3504 223.849 91.3801 223.849ZM132.896 205.241L149.608 245.657H142.911L138.289 234.338H134.2C130.348 234.338 126.2 235.049 123.533 236.886C121.163 238.486 118.555 241.034 117.015 244.531L116.54 245.657H109.844L126.555 205.241H132.896ZM134.141 228.649H135.978L129.696 213.241L122.111 231.968C125.192 230.012 128.037 228.649 134.141 228.649ZM178.738 233.153C183.301 239.849 185.02 239.849 186.205 239.849V245.657H185.257C181.049 245.657 178.146 242.753 175.538 238.783C172.931 234.871 169.968 229.716 163.39 229.716H160.486V245.657H154.086V205.241H168.664C177.316 205.301 183.894 207.434 183.894 217.093C183.894 224.145 179.864 227.049 174.412 228.116C176.072 229.36 177.375 231.079 178.738 233.153ZM166.116 223.849C171.983 223.908 177.257 224.027 177.257 217.449C177.257 211.819 173.583 211.108 168.96 211.108H160.486V223.849H166.116ZM197.913 245.657H191.513V205.241H197.913V245.657ZM216.165 233.153C220.729 239.849 222.447 239.849 223.632 239.849V245.657H222.329C218.121 245.657 215.217 242.753 212.61 238.783C210.002 234.871 204.313 224.501 198.921 224.501L215.454 205.241H223.573L208.462 222.842C211.958 225.449 214.032 229.953 216.165 233.153Z" fill="white"/>
</svg>
