<svg width="305" height="305" viewBox="0 0 305 305" fill="none" xmlns="http://www.w3.org/2000/svg">
<g clip-path="url(#clip0_1_215)">
<path d="M152.458 0C122.305 0 92.8284 8.94149 67.7569 25.6938C42.6853 42.4461 23.1444 66.2567 11.6052 94.1147C0.0660581 121.973 -2.95312 152.627 2.9295 182.201C8.81212 211.775 23.3323 238.94 44.6539 260.262C65.9755 281.583 93.1409 296.104 122.715 301.986C152.289 307.869 182.943 304.85 210.801 293.31C238.659 281.771 262.47 262.23 279.222 237.159C295.974 212.087 304.916 182.611 304.916 152.458C304.916 132.437 300.972 112.612 293.311 94.1147C285.649 75.6177 274.419 58.8109 260.262 44.6539C246.105 30.4968 229.298 19.2669 210.801 11.6052C192.304 3.94344 172.479 0 152.458 0ZM152.458 286.072C125.923 286.072 99.984 278.203 77.921 263.461C55.858 248.719 38.662 227.766 28.5075 203.251C18.3531 178.736 15.6962 151.76 20.8729 125.735C26.0496 99.71 38.8274 75.8045 57.5904 57.0415C76.3534 38.2785 100.259 25.5007 126.284 20.324C152.309 15.1473 179.285 17.8042 203.8 27.9586C228.315 38.1131 249.268 55.3091 264.01 77.3721C278.752 99.435 286.621 125.374 286.621 151.909C286.605 187.481 272.462 221.59 247.304 246.737C222.145 271.884 188.03 286.011 152.458 286.011V286.072Z" fill="#FAE8D6"/>
<path d="M152.458 22.2589C126.767 22.2589 101.654 29.877 80.2928 44.1499C58.9318 58.4229 42.283 78.7096 32.4516 102.445C22.6202 126.18 20.0479 152.297 25.0599 177.494C30.0719 202.691 42.4431 225.836 60.6091 244.002C78.7751 262.168 101.92 274.539 127.117 279.551C152.314 284.563 178.431 281.991 202.166 272.159C225.901 262.328 246.188 245.679 260.461 224.318C274.734 202.957 282.352 177.844 282.352 152.153C282.304 117.718 268.603 84.7068 244.254 60.3574C219.904 36.008 186.893 22.3072 152.458 22.2589Z" fill="#FAE8D6"/>
<path d="M150.155 71.2223H140.292V81.0855H150.155V71.2223Z" fill="#04946D"/>
<path d="M129.818 71.2223H119.955V81.0855H129.818V71.2223Z" fill="#04946D"/>
<path d="M186.266 105.475H176.403V115.338H186.266V105.475Z" fill="#04946D"/>
<path d="M165.93 105.475H156.066V115.338H165.93V105.475Z" fill="#04946D"/>
<path d="M145.593 105.475H135.73V115.338H145.593V105.475Z" fill="#04946D"/>
<path d="M186.266 125.224H176.403V135.088H186.266V125.224Z" fill="#04946D"/>
<path d="M165.93 125.224H156.066V135.088H165.93V125.224Z" fill="#04946D"/>
<path d="M145.593 125.224H135.73V135.088H145.593V125.224Z" fill="#04946D"/>
<path d="M165.93 144.974H156.066V154.837H165.93V144.974Z" fill="#04946D"/>
<path d="M145.593 144.974H135.73V154.837H145.593V144.974Z" fill="#04946D"/>
<path d="M186.266 144.974H176.403V164.78H186.266V144.974Z" fill="#04946D"/>
<path d="M187.841 88.2817H166.928V69.6121C166.928 61.3241 160.187 54.5811 151.899 54.5811H118.212C109.924 54.5811 103.181 61.3241 103.181 69.6121V164.78H110.431V69.6121C110.431 65.3215 113.921 61.8311 118.212 61.8311H151.899C156.188 61.8311 159.678 65.3215 159.678 69.6121V88.2817H134.155C125.867 88.2817 119.124 95.0249 119.124 103.313V164.78H126.374V103.313C126.374 99.023 129.864 95.5318 134.155 95.5318H187.841C192.132 95.5318 195.622 99.023 195.622 103.313V164.78H202.872V103.313C202.872 95.0249 196.129 88.2817 187.841 88.2817Z" fill="#04946D"/>
<path d="M89.2127 188.222C90.8183 188.837 91.8084 190.149 91.8084 192.664C91.8084 196.491 89.0254 197.936 85.9212 197.936H77.7593V179.685H84.8775C86.6705 179.685 91.2732 179.685 91.2732 184.502C91.2732 186.59 90.4437 187.66 89.2127 188.222ZM80.6494 182.335V188.302C81.5325 187.526 82.8437 186.911 84.9846 186.911C87.0183 186.911 88.2493 186.188 88.2493 184.502C88.2493 183.298 87.7944 182.335 85.5198 182.335H80.6494ZM85.9212 195.287C87.3395 195.287 88.7578 194.725 88.7578 192.423C88.7578 190.149 87.2057 189.533 85.7874 189.533H84.5832C82.148 189.56 80.6494 190.818 80.6494 192.851V195.313L85.9212 195.287ZM103.331 179.445C109.084 179.445 112.563 183.646 112.563 188.811C112.563 193.975 109.084 198.177 103.331 198.177C97.5505 198.177 94.0717 193.975 94.0717 188.811C94.0717 183.646 97.5505 179.445 103.331 179.445ZM103.331 195.554C107.479 195.554 109.566 192.664 109.566 188.811C109.566 184.984 107.479 182.094 103.331 182.094C99.1561 182.094 97.0688 184.984 97.0688 188.811C97.0688 192.664 99.1561 195.554 103.331 195.554ZM105.204 188.811L103.331 190.684L101.458 188.811L103.331 186.964L105.204 188.811ZM130.936 179.685H133.505V197.936H130.642V182.897C127.484 184.476 125.584 187.981 125.584 190.978H123.176C123.176 187.981 121.276 184.476 118.145 182.897V197.936H115.254V179.685H117.85C121.115 181.05 123.47 183.807 124.38 185.814C125.316 183.807 127.644 181.05 130.936 179.685ZM171.803 182.335H164.39V185.814H171.027V188.463H164.39V191.942H171.803V194.591H161.527V179.685H171.803V182.335ZM155.934 191.621C157.62 193.842 160.35 198.551 167.227 198.551C169.047 198.551 170.626 198.257 171.776 197.963V200.639C170.251 200.987 168.592 201.147 167.227 201.147C162.704 201.147 158.423 199.809 153.847 193.226C152.669 191.54 151.438 190.737 149.378 190.737H148.174V197.936H145.284V179.685H151.867C155.774 179.712 158.744 180.863 158.744 185.198C158.744 188.463 157.031 189.667 154.596 190.068C155.078 190.55 155.506 191.059 155.934 191.621ZM150.716 188.088C153.365 188.115 155.747 188.168 155.747 185.198C155.747 182.656 154.088 182.335 152 182.335H148.174V188.088H150.716ZM173.665 179.685H188.329V182.335H182.442V197.936H179.552V182.335H173.665V179.685ZM193.617 197.936H190.727V179.685H193.617V197.936ZM219.723 179.445C224.54 179.445 227.296 182.335 227.296 187.125C227.296 191.942 224.54 194.832 219.723 194.832C214.933 194.832 212.177 191.942 212.177 187.125C212.177 182.335 214.933 179.445 219.723 179.445ZM207.467 191.621C209.153 193.842 211.883 198.551 218.76 198.551C220.205 198.551 221.489 198.364 222.533 198.15V200.799C221.249 201.04 219.911 201.147 218.76 201.147C214.237 201.147 209.956 199.809 205.38 193.226C204.202 191.54 202.971 190.737 200.911 190.737H199.707V197.936H196.816V179.685H203.4C207.307 179.712 210.277 180.863 210.277 185.198C210.277 188.463 208.564 189.667 206.129 190.068C206.611 190.55 207.039 191.059 207.467 191.621ZM219.723 192.182C223.577 192.182 224.299 189.292 224.299 187.125C224.299 184.984 223.577 182.094 219.723 182.094C215.897 182.094 215.174 184.984 215.174 187.125C215.174 189.292 215.897 192.182 219.723 192.182ZM202.249 188.088C204.898 188.115 207.28 188.168 207.28 185.198C207.28 182.656 205.621 182.335 203.533 182.335H199.707V188.088H202.249Z" fill="#04946D"/>
<path d="M93.1784 208.604C100.165 208.604 108.658 210.291 108.658 221.132C108.658 229.505 102.996 233.48 93.6603 233.48C89.685 233.48 84.2642 235.287 84.2642 241.009V249.682H77.7593V208.604H93.1784ZM92.8773 227.517C100.466 227.517 101.852 224.927 101.852 221.132C101.852 216.916 99.9845 214.567 92.817 214.567H84.2642V230.227C86.1314 228.661 88.7816 227.517 92.8773 227.517ZM135.074 208.604L152.059 249.682H145.253L140.555 238.178H136.399C132.484 238.178 128.268 238.901 125.557 240.768C123.148 242.394 120.498 244.984 118.932 248.538L118.45 249.682H111.644L128.629 208.604H135.074ZM136.339 232.396H138.206L131.821 216.736L124.112 235.769C127.244 233.781 130.135 232.396 136.339 232.396ZM181.667 236.973C186.305 243.779 188.051 243.779 189.256 243.779V249.682H188.292C184.016 249.682 181.065 246.731 178.414 242.695C175.764 238.72 172.753 233.48 166.067 233.48H163.116V249.682H156.611V208.604H171.428C180.221 208.665 186.907 210.833 186.907 220.651C186.907 227.818 182.811 230.769 177.27 231.854C178.956 233.118 180.282 234.865 181.667 236.973ZM168.838 227.517C174.801 227.577 180.161 227.698 180.161 221.012C180.161 215.29 176.427 214.567 171.729 214.567H163.116V227.517H168.838ZM201.156 249.682H194.651V208.604H201.156V249.682ZM219.707 236.973C224.345 243.779 226.092 243.779 227.296 243.779V249.682H225.971C221.695 249.682 218.744 246.731 216.093 242.695C213.443 238.72 207.661 228.179 202.18 228.179L218.985 208.604H227.236L211.877 226.493C215.431 229.143 217.539 233.721 219.707 236.973Z" fill="#04946D"/>
</g>
<defs>
<clipPath id="clip0_1_215">
<rect width="304.916" height="304.916" fill="white"/>
</clipPath>
</defs>
</svg>
